# xmcd CD database file
#
# Track frame offsets:
#	187
#	19317
#	29960
#	51637
#	83825
#	101220
#	123922
#	140150
#
# Disc length: 2184 seconds
#
# Revision: 0
# Processed by: cddbd v1.5.2PL0 Copyright (c) Steve Scherf et al.
# Submitted via: CDex 1.70beta3
#
DISCID=7b088608
DTITLE=Eddie Jefferson - Come Along With Me
DYEAR=1969
DGENRE=Jazz
TTITLE0=Come Along With Me
TTITLE1=Son  Of The Preacher Man
TTITLE2=The Preacher
TTITLE3=Yardbird Suite
TTITLE4=Dexter Digs In
TTITLE5=Please Leave Me Alone
TTITLE6=Baby Girl
TTITLE7=When You're Smiling
EXTD=YEAR: 1969
EXTT0=
EXTT1=
EXTT2=
EXTT3=
EXTT4=
EXTT5=
EXTT6=
EXTT7=
PLAYORDER=
